<svg xmlns="http://www.w3.org/2000/svg" enable-background="new 0 0 1080 1080" viewBox="0 0 1080 1080" id="man-thinking-while-doing-work-in-laptop"><path fill="#2a94f4" d="M764.5 694.6c-2.7 0 93.7-208.8-9.8-179.1-103.5 29.7-120.4 38.6-102.6-31.9s-36.6-233.7-121.3-123.1S328.3 403.3 314 464.9s53.5 75.8 10.7 102.6-16.1 127.1-16.1 127.1h455.9z" opacity=".07"></path><path fill="#d3d3d3" d="M858.2 717.8H234.4c-5.1 0-9.3-4.2-9.3-9.3v-8.1c0-5.1 4.2-9.3 9.3-9.3h623.7c5.1 0 9.3 4.2 9.3 9.3v8.1c.1 5.2-4.1 9.3-9.2 9.3z"></path><path fill="#ffbe55" d="M379.3 639.7h44.4V692h-44.4z"></path><path fill="#ffbe55" d="M380.6 687.1c-10.1 0-18.4-8.2-18.4-18.4s8.2-18.4 18.4-18.4 18.4 8.2 18.4 18.4-8.2 18.4-18.4 18.4zm0-32.7c-7.9 0-14.4 6.4-14.4 14.4s6.4 14.4 14.4 14.4 14.4-6.4 14.4-14.4-6.5-14.4-14.4-14.4z"></path><g opacity=".41"><path fill="#ffbe55" d="M408.5 636.3c-.5 0-.9-.2-1.2-.6-.2-.3-4.8-6.5-3.4-13.3.8-3.9 3.4-7.2 7.6-9.7 5-2.9 5.3-4.8 5.2-5.4-.2-1.6-3.4-3-4.9-3.4-.8-.2-1.3-1-1.1-1.8.2-.8 1-1.3 1.8-1.1.7.2 6.5 1.9 7.1 5.9.4 2.8-1.8 5.5-6.7 8.4-3.5 2.1-5.6 4.7-6.2 7.7-1.1 5.5 2.9 10.8 2.9 10.9.5.7.4 1.6-.3 2.1-.2.2-.5.3-.8.3z"></path></g><g opacity=".41"><path fill="#ffbe55" d="M392 634.8c-.7 0-1.3-.5-1.5-1.1-.2-.8.3-1.6 1.1-1.8 2.2-.5 2.5-1.1 2.5-1.1 0-.4-.5-1.9-8.7-6.7-2.3-1.3-2.6-2.9-2.6-4 .3-5 11.3-9.9 13.5-10.8.8-.3 1.6 0 2 .8.3.8 0 1.6-.8 2-5.5 2.4-11.6 6.2-11.7 8.3 0 .4.3.8 1.1 1.2 6.7 3.9 10.6 6.8 10.1 9.7-.4 2.5-3.7 3.3-4.7 3.6-.1-.1-.2-.1-.3-.1z"></path></g><g opacity=".41"><path fill="#ffbe55" d="M400.3 601.9c-.4 0-.7-.1-1-.4-.6-.6-.6-1.5-.1-2.1.8-.8 2.9-3.7 2.4-5.5-.2-.8-1.1-1.5-2.5-1.9-2.6-.8-3.4-2.3-3.6-3.5-.8-4.3 5.9-9.7 7.3-10.8.7-.5 1.6-.4 2.1.3s.4 1.6-.3 2.1c-2.7 2.1-6.5 6-6.2 7.9.1.5.6.8 1.5 1.1 2.5.8 4 2.1 4.5 4 1 3.8-2.7 7.8-3.1 8.3-.2.4-.6.5-1 .5z"></path></g><path fill="#d3d3d3" d="M609.3 576.1c.9-12.2 1.5-23.6 1.9-34.2-2.9-1.6-6.5-3.4-9.3-4.7-8.7-4.2-20.9-9.8-28.7-13.4-4.6-2.1-9.1-3.6-9.1-3.6s-31.2-3-33.8-2.8c-.8 0-4.7 1.4-9.8 3.4-11.1 4.2-32.4 12.8-35.8 15.2-5 3.6-22.8 91-23.3 97-.5 5.8 24.3 13.7 47.2 19.7 0 8.9-.2 21.3-.4 32.6 0 1.9-.1 3.8-.1 5.7h100.2c-.1-1.9-.3-3.9-.4-5.7v-.7c-.4-7.7-1.9-21.4-1.5-34.8 0 0-.2-14.1 1.2-20.2.1-26.9 1.7-53.5 1.7-53.5zm-127.1 51.5c.2-11.4 15.3-32.6 15.3-32.6l.7-.3.8-.1 2.4-2.2c.6 2 5.6 30.6 6.8 47.3-14.2-2.8-26-6.7-26-12.1z"></path><path fill="#ffbe55" d="M611.2 685.3c-.7-4.7-1.3-9.5-1.8-14.1v-.1c-.2-1.5-.4-3.1-.5-4.6v-.2c-.7-6.4-1.3-12.5-1.8-18.1-.3-4.3 0-8.5.6-12.6 1.7-28.7 2.6-59 2.6-59 .9-12.4 1.4-24 1.8-34.8 0 0-39.2-18.5-42.8-19.6 0 0 7.4 17.5 13 56.5 2.1 15 6.1 40.2 9 66 1.6 13.9 4.5 28.1 6.7 40.6.3 1.9.7 3.8 1 5.7h13c-.3-1.9-.6-3.8-.8-5.7zM545.9 639.2c1.5-14.5 2.9-29 2.3-36.9-5.4-63.8-20.7-80.7-22.9-83.2-1.7.7-8.2 3.1-10.2 3.9-10.5 4.1-31.8 11.7-34.7 13.8-5 3.6-24.6 95.3-25.2 101.2-.4 4 25.3 12.4 51.4 19.9-.2 7.2.4 17.3-1.9 27.9-.4 1.9-1 3.1-1.1 5.5l36.4-.3c.2-1.9.5-3.8.7-5.7.7-5.7 1.4-11.5 2.1-17.8 10.9 2.8 18.4 4.7 18.4 4.7s10.3-17.4 13.3-24.4c.4-1.2-12.8-4.4-28.6-8.6zm-47.2-22c-.3-13.1-.3-22.2-.3-22.2 1.3 4.5 3.1 17.3 4.7 30-5.4-2.6-4.4-5.1-4.4-7.8z"></path><path fill="#ffe3ca" d="M528.7 518.4s4-7.5 2.9-28.8c-.3-5.9 31 14 31 14s-.1 2-.2 4.8c0 1.1-.1 2.4-.1 3.7v2.8c0 .7 0 1.4.1 2.1 0 .8.1 1.5.2 2.2.1 1.3.9 3.6 1.2 4.2 1.4 3.2-23.4 3.4-35.1-5z"></path><path fill="#ffe3ca" d="M561.1 524.8 555 532s-9.9-1.9-12.8-7.1c-3-5.2 18.9-.1 18.9-.1z"></path><path fill="#ffbe55" d="M620.5 599.6c-8.9-12.8-17.3-15.9-17.3-15.9S577 553 598 539.3c0 0 9-.2 14 2.5 5.1 2.8 15.9 25.4 17.8 29.4 1.8 4 2.1 10.2 3.4 11.1-.1-.1 2.2 15.9-12.7 17.3z"></path><path fill="#ffe3ca" d="M586.7 679.9s-2.7-.1-3.8-.7c0 0-2-1.3-3.5-2.1-.5-.3-.9-.5-1.2-.6-1.2-.5-3.9-1.1-6.4-3-2.5-1.9-10.7-9.5-10.7-9.5l5.3-8.1 2.4-8s19 1.9 21.6 3.4c.2.1.5.3.7.5 2 1.5 2.9 3.4 3.9 4.3.4.3 3.7 3.9 3.5 5.3-.3 2-1.2 3.3-2.5 3.9 0 0-.7 3.9-2.7 5.6 0 0-.5 3.6-3.6 5.1 0-.1-.9 3.5-3 3.9zM545.4 435s31.6-16 34.5 28.1c2.9 44-4.3 49.4-26.7 45.7-22.4-3.6-27.4-31.1-31.7-44.1-4.3-12.9 13.3-26.5 23.9-29.7z"></path><path fill="#ffe3ca" d="M538.3 464.8c-.5-3.8-8.1-5.1-8.6.6-.5 5.8 3.7 15.8 6.5 14.7 2.8-1 2.8-10 2.1-15.3z"></path><path fill="#0b4870" d="M528.6 486s-2.5-13.5 2.3-15.1c4.7-1.6 6.8 3.5 6.8 3.5l5.1-.3s-4.5-11.2-.1-14.5c4.3-3.2 33-1.5 36-5.9s16-21.6-13.4-22.6c-11.3-.4-29-4-36.9 8.6 0 0-10.7 4.5-10.6 8.2 0 9.5 6.1 32.2 10.8 38.1z"></path><path fill="#ffbe55" d="m575.4 647.8-14.2 24.4s-37.6-9.7-46.4-12.2l20.1-23.9c-.1.1 29.5 6.8 40.5 11.7z"></path><path fill="#fcd2b1" d="M562.5 514.6c-18.5-1.9-25.6-16.1-25.6-16.1 11.6 11.5 25.5 11.2 25.5 11.2v2.8c0 .7 0 1.4.1 2.1z"></path><path fill="#ffe3ca" d="M566.4 515.6s1 1.8 1.8 2.4c0 0 1.6 1 2.6 1.7.3.2.6.5.8.6.7.7 2.1 2.3 4.2 3.5 2.2 1.1 10.2 4.3 10.2 4.3l3.9-6.4 4.8-4.4s-7.6-12.7-9.5-14l-.6-.3c-1.7-.9-3.4-.9-4.3-1.3-.4-.1-3.9-1.3-4.9-.7-1.3.8-1.9 2-1.9 3 0 0-2.5 1.8-3.1 3.7 0 0-2.4 1.5-2.3 4.2.1.2-2.2 2.1-1.7 3.7z"></path><path fill="#ffbe55" d="M595.4 514s31 47 32.8 60.5-6.7 19.3-14 14.9c-7.2-4.4-31-60-31-60l12.2-15.4z"></path><path fill="#0b4870" d="M687.6 379.7c-47.2 0-85.4 22.1-85.4 49.4 0 10.6 5.8 20.5 15.7 28.5l-1.3 11.1 10.5-4.8c15.5 9 36.9 14.5 60.5 14.5 47.2 0 85.4-22.1 85.4-49.4s-38.2-49.3-85.4-49.3z"></path><circle cx="637.9" cy="427.6" r="4.6" fill="#fff"></circle><circle cx="657.8" cy="427.6" r="4.6" fill="#fff"></circle><circle cx="677.8" cy="427.6" r="4.6" fill="#fff"></circle><circle cx="697.8" cy="427.6" r="4.6" fill="#fff"></circle><circle cx="717.8" cy="427.6" r="4.6" fill="#fff"></circle><circle cx="737.7" cy="427.6" r="4.6" fill="#fff"></circle><path fill="#2a94f4" d="m660.7 597.9-10 93.3h132l10.1-93.3z"></path><path fill="#2a94f4" d="M640.2 682.8h22.1v8.4h-22.1z" transform="rotate(-180 651.218 686.958)"></path><path fill="#d3d3d3" d="M714.4 643c-1.1 5.2 1.4 10.1 5.4 10.9 4 .8 8.2-2.7 9.3-7.9 1.1-5.2-1.4-10.1-5.4-10.9-4.1-.8-8.2 2.7-9.3 7.9z"></path></svg>